<svg xmlns="http://www.w3.org/2000/svg" xmlns:xlink="http://www.w3.org/1999/xlink" width="300" zoomAndPan="magnify" viewBox="0 0 224.87999 74.999997" height="100" preserveAspectRatio="xMidYMid meet" version="1.0"><defs><g/><clipPath id="c1f89569b9"><path d="M 0 0.0195312 L 224.761719 0.0195312 L 224.761719 74.980469 L 0 74.980469 Z M 0 0.0195312 " clip-rule="nonzero"/></clipPath><linearGradient x1="0" gradientTransform="matrix(0.7496, 0, 0, 0.7496, 0, 0.0199992)" y1="50" x2="299.839987" gradientUnits="userSpaceOnUse" y2="50" id="5c92d75b29"><stop stop-opacity="1" stop-color="rgb(100%, 87.059021%, 34.899902%)" offset="0"/><stop stop-opacity="1" stop-color="rgb(100%, 86.941528%, 34.881592%)" offset="0.0078125"/><stop stop-opacity="1" stop-color="rgb(100%, 86.705017%, 34.843445%)" offset="0.015625"/><stop stop-opacity="1" stop-color="rgb(100%, 86.470032%, 34.806824%)" offset="0.0234375"/><stop stop-opacity="1" stop-color="rgb(100%, 86.233521%, 34.770203%)" offset="0.03125"/><stop stop-opacity="1" stop-color="rgb(100%, 85.997009%, 34.733582%)" offset="0.0390625"/><stop stop-opacity="1" stop-color="rgb(100%, 85.762024%, 34.69696%)" offset="0.046875"/><stop stop-opacity="1" stop-color="rgb(100%, 85.525513%, 34.660339%)" offset="0.0546875"/><stop stop-opacity="1" stop-color="rgb(100%, 85.290527%, 34.623718%)" offset="0.0625"/><stop stop-opacity="1" stop-color="rgb(100%, 85.054016%, 34.587097%)" offset="0.0703125"/><stop stop-opacity="1" stop-color="rgb(100%, 84.819031%, 34.550476%)" offset="0.078125"/><stop stop-opacity="1" stop-color="rgb(100%, 84.58252%, 34.513855%)" offset="0.0859375"/><stop stop-opacity="1" stop-color="rgb(100%, 84.347534%, 34.477234%)" offset="0.09375"/><stop stop-opacity="1" stop-color="rgb(100%, 84.111023%, 34.440613%)" offset="0.101562"/><stop stop-opacity="1" stop-color="rgb(100%, 83.876038%, 34.403992%)" offset="0.109375"/><stop stop-opacity="1" stop-color="rgb(100%, 83.639526%, 34.367371%)" offset="0.117188"/><stop stop-opacity="1" stop-color="rgb(100%, 83.403015%, 34.33075%)" offset="0.125"/><stop stop-opacity="1" stop-color="rgb(100%, 83.16803%, 34.294128%)" offset="0.132812"/><stop stop-opacity="1" stop-color="rgb(100%, 82.931519%, 34.257507%)" offset="0.140625"/><stop stop-opacity="1" stop-color="rgb(100%, 82.696533%, 34.220886%)" offset="0.148437"/><stop stop-opacity="1" stop-color="rgb(100%, 82.460022%, 34.184265%)" offset="0.15625"/><stop stop-opacity="1" stop-color="rgb(100%, 82.225037%, 34.146118%)" offset="0.164062"/><stop stop-opacity="1" stop-color="rgb(100%, 81.988525%, 34.109497%)" offset="0.171875"/><stop stop-opacity="1" stop-color="rgb(100%, 81.75354%, 34.072876%)" offset="0.179687"/><stop stop-opacity="1" stop-color="rgb(100%, 81.517029%, 34.036255%)" offset="0.1875"/><stop stop-opacity="1" stop-color="rgb(100%, 81.282043%, 33.999634%)" offset="0.195312"/><stop stop-opacity="1" stop-color="rgb(100%, 81.045532%, 33.963013%)" offset="0.203125"/><stop stop-opacity="1" stop-color="rgb(100%, 80.810547%, 33.926392%)" offset="0.210938"/><stop stop-opacity="1" stop-color="rgb(100%, 80.574036%, 33.889771%)" offset="0.21875"/><stop stop-opacity="1" stop-color="rgb(100%, 80.337524%, 33.853149%)" offset="0.226562"/><stop stop-opacity="1" stop-color="rgb(100%, 80.102539%, 33.816528%)" offset="0.234375"/><stop stop-opacity="1" stop-color="rgb(100%, 79.866028%, 33.779907%)" offset="0.242188"/><stop stop-opacity="1" stop-color="rgb(100%, 79.631042%, 33.743286%)" offset="0.25"/><stop stop-opacity="1" stop-color="rgb(100%, 79.394531%, 33.706665%)" offset="0.257812"/><stop stop-opacity="1" stop-color="rgb(100%, 79.159546%, 33.670044%)" offset="0.265625"/><stop stop-opacity="1" stop-color="rgb(100%, 78.923035%, 33.633423%)" offset="0.273437"/><stop stop-opacity="1" stop-color="rgb(100%, 78.688049%, 33.596802%)" offset="0.28125"/><stop stop-opacity="1" stop-color="rgb(100%, 78.451538%, 33.560181%)" offset="0.289062"/><stop stop-opacity="1" stop-color="rgb(100%, 78.216553%, 33.52356%)" offset="0.296875"/><stop stop-opacity="1" stop-color="rgb(100%, 77.980042%, 33.486938%)" offset="0.304687"/><stop stop-opacity="1" stop-color="rgb(100%, 77.74353%, 33.450317%)" offset="0.3125"/><stop stop-opacity="1" stop-color="rgb(100%, 77.508545%, 33.41217%)" offset="0.320312"/><stop stop-opacity="1" stop-color="rgb(100%, 77.272034%, 33.375549%)" offset="0.328125"/><stop stop-opacity="1" stop-color="rgb(100%, 77.037048%, 33.338928%)" offset="0.335937"/><stop stop-opacity="1" stop-color="rgb(100%, 76.800537%, 33.302307%)" offset="0.34375"/><stop stop-opacity="1" stop-color="rgb(100%, 76.565552%, 33.265686%)" offset="0.351562"/><stop stop-opacity="1" stop-color="rgb(100%, 76.329041%, 33.229065%)" offset="0.359375"/><stop stop-opacity="1" stop-color="rgb(100%, 76.094055%, 33.192444%)" offset="0.367187"/><stop stop-opacity="1" stop-color="rgb(100%, 75.857544%, 33.155823%)" offset="0.375"/><stop stop-opacity="1" stop-color="rgb(100%, 75.622559%, 33.119202%)" offset="0.382812"/><stop stop-opacity="1" stop-color="rgb(100%, 75.386047%, 33.082581%)" offset="0.390625"/><stop stop-opacity="1" stop-color="rgb(100%, 75.151062%, 33.045959%)" offset="0.398438"/><stop stop-opacity="1" stop-color="rgb(100%, 74.914551%, 33.009338%)" offset="0.40625"/><stop stop-opacity="1" stop-color="rgb(100%, 74.67804%, 32.972717%)" offset="0.414062"/><stop stop-opacity="1" stop-color="rgb(100%, 74.443054%, 32.936096%)" offset="0.421875"/><stop stop-opacity="1" stop-color="rgb(100%, 74.206543%, 32.899475%)" offset="0.429688"/><stop stop-opacity="1" stop-color="rgb(100%, 73.971558%, 32.862854%)" offset="0.4375"/><stop stop-opacity="1" stop-color="rgb(100%, 73.735046%, 32.826233%)" offset="0.445312"/><stop stop-opacity="1" stop-color="rgb(100%, 73.500061%, 32.789612%)" offset="0.453125"/><stop stop-opacity="1" stop-color="rgb(100%, 73.26355%, 32.752991%)" offset="0.460938"/><stop stop-opacity="1" stop-color="rgb(100%, 73.028564%, 32.714844%)" offset="0.46875"/><stop stop-opacity="1" stop-color="rgb(100%, 72.792053%, 32.678223%)" offset="0.476562"/><stop stop-opacity="1" stop-color="rgb(100%, 72.557068%, 32.641602%)" offset="0.484375"/><stop stop-opacity="1" stop-color="rgb(100%, 72.320557%, 32.60498%)" offset="0.492188"/><stop stop-opacity="1" stop-color="rgb(100%, 72.084045%, 32.568359%)" offset="0.5"/><stop stop-opacity="1" stop-color="rgb(100%, 71.84906%, 32.531738%)" offset="0.507812"/><stop stop-opacity="1" stop-color="rgb(100%, 71.612549%, 32.495117%)" offset="0.515625"/><stop stop-opacity="1" stop-color="rgb(100%, 71.377563%, 32.458496%)" offset="0.523438"/><stop stop-opacity="1" stop-color="rgb(100%, 71.141052%, 32.421875%)" offset="0.53125"/><stop stop-opacity="1" stop-color="rgb(100%, 70.906067%, 32.385254%)" offset="0.539062"/><stop stop-opacity="1" stop-color="rgb(100%, 70.669556%, 32.348633%)" offset="0.546875"/><stop stop-opacity="1" stop-color="rgb(100%, 70.43457%, 32.312012%)" offset="0.554687"/><stop stop-opacity="1" stop-color="rgb(100%, 70.198059%, 32.275391%)" offset="0.5625"/><stop stop-opacity="1" stop-color="rgb(100%, 69.963074%, 32.23877%)" offset="0.570312"/><stop stop-opacity="1" stop-color="rgb(100%, 69.726562%, 32.202148%)" offset="0.578125"/><stop stop-opacity="1" stop-color="rgb(100%, 69.491577%, 32.165527%)" offset="0.585937"/><stop stop-opacity="1" stop-color="rgb(100%, 69.255066%, 32.128906%)" offset="0.59375"/><stop stop-opacity="1" stop-color="rgb(100%, 69.018555%, 32.092285%)" offset="0.601562"/><stop stop-opacity="1" stop-color="rgb(100%, 68.783569%, 32.055664%)" offset="0.609375"/><stop stop-opacity="1" stop-color="rgb(100%, 68.547058%, 32.019043%)" offset="0.617187"/><stop stop-opacity="1" stop-color="rgb(100%, 68.312073%, 31.980896%)" offset="0.625"/><stop stop-opacity="1" stop-color="rgb(100%, 68.075562%, 31.944275%)" offset="0.632812"/><stop stop-opacity="1" stop-color="rgb(100%, 67.840576%, 31.907654%)" offset="0.640625"/><stop stop-opacity="1" stop-color="rgb(100%, 67.604065%, 31.871033%)" offset="0.648437"/><stop stop-opacity="1" stop-color="rgb(100%, 67.36908%, 31.834412%)" offset="0.65625"/><stop stop-opacity="1" stop-color="rgb(100%, 67.132568%, 31.797791%)" offset="0.664062"/><stop stop-opacity="1" stop-color="rgb(100%, 66.897583%, 31.761169%)" offset="0.671875"/><stop stop-opacity="1" stop-color="rgb(100%, 66.661072%, 31.724548%)" offset="0.679687"/><stop stop-opacity="1" stop-color="rgb(100%, 66.424561%, 31.687927%)" offset="0.6875"/><stop stop-opacity="1" stop-color="rgb(100%, 66.189575%, 31.651306%)" offset="0.695312"/><stop stop-opacity="1" stop-color="rgb(100%, 65.953064%, 31.614685%)" offset="0.703125"/><stop stop-opacity="1" stop-color="rgb(100%, 65.718079%, 31.578064%)" offset="0.710937"/><stop stop-opacity="1" stop-color="rgb(100%, 65.481567%, 31.541443%)" offset="0.71875"/><stop stop-opacity="1" stop-color="rgb(100%, 65.246582%, 31.504822%)" offset="0.726562"/><stop stop-opacity="1" stop-color="rgb(100%, 65.010071%, 31.468201%)" offset="0.734375"/><stop stop-opacity="1" stop-color="rgb(100%, 64.775085%, 31.43158%)" offset="0.742187"/><stop stop-opacity="1" stop-color="rgb(100%, 64.538574%, 31.394958%)" offset="0.75"/><stop stop-opacity="1" stop-color="rgb(100%, 64.303589%, 31.358337%)" offset="0.757812"/><stop stop-opacity="1" stop-color="rgb(100%, 64.067078%, 31.321716%)" offset="0.765625"/><stop stop-opacity="1" stop-color="rgb(100%, 63.832092%, 31.283569%)" offset="0.773437"/><stop stop-opacity="1" stop-color="rgb(100%, 63.595581%, 31.246948%)" offset="0.78125"/><stop stop-opacity="1" stop-color="rgb(100%, 63.35907%, 31.210327%)" offset="0.789062"/><stop stop-opacity="1" stop-color="rgb(100%, 63.124084%, 31.173706%)" offset="0.796875"/><stop stop-opacity="1" stop-color="rgb(100%, 62.887573%, 31.137085%)" offset="0.804687"/><stop stop-opacity="1" stop-color="rgb(100%, 62.652588%, 31.100464%)" offset="0.8125"/><stop stop-opacity="1" stop-color="rgb(100%, 62.416077%, 31.063843%)" offset="0.820312"/><stop stop-opacity="1" stop-color="rgb(100%, 62.181091%, 31.027222%)" offset="0.828125"/><stop stop-opacity="1" stop-color="rgb(100%, 61.94458%, 30.990601%)" offset="0.835937"/><stop stop-opacity="1" stop-color="rgb(100%, 61.709595%, 30.953979%)" offset="0.84375"/><stop stop-opacity="1" stop-color="rgb(100%, 61.473083%, 30.917358%)" offset="0.851562"/><stop stop-opacity="1" stop-color="rgb(100%, 61.238098%, 30.880737%)" offset="0.859375"/><stop stop-opacity="1" stop-color="rgb(100%, 61.001587%, 30.844116%)" offset="0.867187"/><stop stop-opacity="1" stop-color="rgb(100%, 60.765076%, 30.807495%)" offset="0.875"/><stop stop-opacity="1" stop-color="rgb(100%, 60.53009%, 30.770874%)" offset="0.882812"/><stop stop-opacity="1" stop-color="rgb(100%, 60.293579%, 30.734253%)" offset="0.890625"/><stop stop-opacity="1" stop-color="rgb(100%, 60.058594%, 30.697632%)" offset="0.898437"/><stop stop-opacity="1" stop-color="rgb(100%, 59.822083%, 30.661011%)" offset="0.90625"/><stop stop-opacity="1" stop-color="rgb(100%, 59.587097%, 30.62439%)" offset="0.914062"/><stop stop-opacity="1" stop-color="rgb(100%, 59.350586%, 30.587769%)" offset="0.921875"/><stop stop-opacity="1" stop-color="rgb(100%, 59.115601%, 30.549622%)" offset="0.929687"/><stop stop-opacity="1" stop-color="rgb(100%, 58.879089%, 30.513%)" offset="0.9375"/><stop stop-opacity="1" stop-color="rgb(100%, 58.644104%, 30.476379%)" offset="0.945312"/><stop stop-opacity="1" stop-color="rgb(100%, 58.407593%, 30.439758%)" offset="0.953125"/><stop stop-opacity="1" stop-color="rgb(100%, 58.172607%, 30.403137%)" offset="0.960937"/><stop stop-opacity="1" stop-color="rgb(100%, 57.936096%, 30.366516%)" offset="0.96875"/><stop stop-opacity="1" stop-color="rgb(100%, 57.699585%, 30.329895%)" offset="0.976562"/><stop stop-opacity="1" stop-color="rgb(100%, 57.4646%, 30.293274%)" offset="0.984375"/><stop stop-opacity="1" stop-color="rgb(100%, 57.228088%, 30.256653%)" offset="0.992187"/><stop stop-opacity="1" stop-color="rgb(100%, 56.993103%, 30.220032%)" offset="1"/></linearGradient><clipPath id="af52f28eb8"><rect x="0" width="159" y="0" height="43"/></clipPath></defs><g clip-path="url(#c1f89569b9)"><path fill="#ffffff" d="M 0 0.0195312 L 224.878906 0.0195312 L 224.878906 74.980469 L 0 74.980469 Z M 0 0.0195312 " fill-opacity="1" fill-rule="nonzero"/><path fill="url(#5c92d75b29)" d="M 0 0.0195312 L 0 74.980469 L 224.761719 74.980469 L 224.761719 0.0195312 Z M 0 0.0195312 " fill-rule="nonzero"/></g><g transform="matrix(1, 0, 0, 1, 33, 16)"><g clip-path="url(#af52f28eb8)"><g fill="#ffffff" fill-opacity="1"><g transform="translate(0.916846, 33.113245)"><g><path d="M 11.421875 -22.109375 C 13.003906 -22.109375 14.351562 -21.816406 15.46875 -21.234375 C 16.59375 -20.660156 17.441406 -19.847656 18.015625 -18.796875 C 18.597656 -17.753906 18.890625 -16.546875 18.890625 -15.171875 C 18.890625 -13.785156 18.597656 -12.570312 18.015625 -11.53125 C 17.441406 -10.5 16.59375 -9.691406 15.46875 -9.109375 C 14.351562 -8.523438 13.003906 -8.234375 11.421875 -8.234375 L 7.25 -8.234375 L 7.25 0 L 2.875 0 L 2.875 -22.109375 Z M 10.84375 -11.703125 C 13.269531 -11.703125 14.484375 -12.859375 14.484375 -15.171875 C 14.484375 -17.484375 13.269531 -18.640625 10.84375 -18.640625 L 7.25 -18.640625 L 7.25 -11.703125 Z M 10.84375 -11.703125 "/></g></g></g><g fill="#ffffff" fill-opacity="1"><g transform="translate(21.114909, 33.113245)"><g><path d="M 6.921875 0.3125 C 5.421875 0.3125 4.273438 -0.0859375 3.484375 -0.890625 C 2.691406 -1.703125 2.296875 -2.9375 2.296875 -4.59375 L 2.296875 -23.375 L 6.484375 -23.375 L 6.484375 -4.765625 C 6.484375 -3.742188 6.90625 -3.234375 7.75 -3.234375 C 8 -3.234375 8.257812 -3.273438 8.53125 -3.359375 L 8.734375 -3.296875 L 9.125 -0.078125 C 8.882812 0.046875 8.570312 0.140625 8.1875 0.203125 C 7.8125 0.273438 7.390625 0.3125 6.921875 0.3125 Z M 6.921875 0.3125 "/></g></g></g><g fill="#ffffff" fill-opacity="1"><g transform="translate(30.699918, 33.113245)"><g><path d="M 6.5 0.3125 C 5.4375 0.3125 4.507812 0.117188 3.71875 -0.265625 C 2.9375 -0.660156 2.332031 -1.238281 1.90625 -2 C 1.476562 -2.757812 1.265625 -3.675781 1.265625 -4.75 C 1.265625 -5.738281 1.476562 -6.566406 1.90625 -7.234375 C 2.332031 -7.898438 2.988281 -8.445312 3.875 -8.875 C 4.757812 -9.3125 5.914062 -9.644531 7.34375 -9.875 C 8.34375 -10.03125 9.101562 -10.203125 9.625 -10.390625 C 10.144531 -10.585938 10.492188 -10.804688 10.671875 -11.046875 C 10.859375 -11.296875 10.953125 -11.601562 10.953125 -11.96875 C 10.953125 -12.507812 10.765625 -12.921875 10.390625 -13.203125 C 10.015625 -13.484375 9.394531 -13.625 8.53125 -13.625 C 7.601562 -13.625 6.71875 -13.414062 5.875 -13 C 5.039062 -12.59375 4.316406 -12.050781 3.703125 -11.375 L 3.40625 -11.375 L 1.640625 -14.015625 C 2.492188 -14.953125 3.53125 -15.679688 4.75 -16.203125 C 5.96875 -16.734375 7.296875 -17 8.734375 -17 C 10.941406 -17 12.539062 -16.53125 13.53125 -15.59375 C 14.519531 -14.65625 15.015625 -13.320312 15.015625 -11.59375 L 15.015625 -4.359375 C 15.015625 -3.609375 15.34375 -3.234375 16 -3.234375 C 16.25 -3.234375 16.492188 -3.28125 16.734375 -3.375 L 16.953125 -3.3125 L 17.25 -0.390625 C 17.019531 -0.242188 16.695312 -0.117188 16.28125 -0.015625 C 15.875 0.078125 15.421875 0.125 14.921875 0.125 C 13.921875 0.125 13.140625 -0.0664062 12.578125 -0.453125 C 12.023438 -0.835938 11.628906 -1.4375 11.390625 -2.25 L 11.0625 -2.28125 C 10.25 -0.550781 8.726562 0.3125 6.5 0.3125 Z M 7.828125 -2.8125 C 8.796875 -2.8125 9.570312 -3.132812 10.15625 -3.78125 C 10.738281 -4.4375 11.03125 -5.34375 11.03125 -6.5 L 11.03125 -8.203125 L 10.734375 -8.25 C 10.484375 -8.050781 10.15625 -7.882812 9.75 -7.75 C 9.34375 -7.613281 8.753906 -7.476562 7.984375 -7.34375 C 7.078125 -7.195312 6.421875 -6.9375 6.015625 -6.5625 C 5.617188 -6.195312 5.421875 -5.675781 5.421875 -5 C 5.421875 -4.289062 5.632812 -3.75 6.0625 -3.375 C 6.488281 -3 7.078125 -2.8125 7.828125 -2.8125 Z M 7.828125 -2.8125 "/></g></g></g><g fill="#ffffff" fill-opacity="1"><g transform="translate(47.965001, 33.113245)"><g><path d="M 3.6875 7.078125 C 2.96875 7.078125 2.316406 7.019531 1.734375 6.90625 C 1.160156 6.800781 0.691406 6.65625 0.328125 6.46875 L 1 3.078125 L 1.265625 3 C 1.515625 3.125 1.828125 3.226562 2.203125 3.3125 C 2.578125 3.394531 2.960938 3.4375 3.359375 3.4375 C 4.035156 3.4375 4.597656 3.347656 5.046875 3.171875 C 5.492188 2.992188 5.875 2.695312 6.1875 2.28125 C 6.5 1.875 6.773438 1.3125 7.015625 0.59375 L 0.359375 -16.671875 L 4.75 -16.671875 L 8.890625 -5.078125 L 9.25 -5.078125 L 13.296875 -16.671875 L 17.5625 -16.671875 L 10.859375 1.046875 C 10.328125 2.472656 9.738281 3.625 9.09375 4.5 C 8.457031 5.375 7.703125 6.019531 6.828125 6.4375 C 5.953125 6.863281 4.90625 7.078125 3.6875 7.078125 Z M 3.6875 7.078125 "/></g></g></g><g fill="#ffffff" fill-opacity="1"><g transform="translate(65.865081, 33.113245)"><g/></g></g><g fill="#ffffff" fill-opacity="1"><g transform="translate(73.167225, 33.113245)"><g><path d="M 21.21875 0 L 16.625 0 L 14.953125 -5.09375 L 6.484375 -5.09375 L 4.828125 0 L 0.328125 0 L 7.96875 -22.109375 L 13.578125 -22.109375 Z M 10.515625 -17.5 L 7.671875 -8.765625 L 13.75 -8.765625 L 10.890625 -17.5 Z M 10.515625 -17.5 "/></g></g></g><g fill="#ffffff" fill-opacity="1"><g transform="translate(94.710817, 33.113245)"><g><path d="M 8.65625 7.078125 C 5.894531 7.078125 3.859375 6.671875 2.546875 5.859375 C 1.242188 5.054688 0.59375 3.9375 0.59375 2.5 C 0.59375 1.613281 0.867188 0.890625 1.421875 0.328125 C 1.984375 -0.222656 2.789062 -0.59375 3.84375 -0.78125 L 3.84375 -1.109375 C 3.28125 -1.453125 2.875 -1.832031 2.625 -2.25 C 2.375 -2.664062 2.25 -3.148438 2.25 -3.703125 C 2.25 -5.046875 3.125 -5.945312 4.875 -6.40625 L 4.875 -6.734375 C 3.96875 -7.242188 3.285156 -7.878906 2.828125 -8.640625 C 2.378906 -9.398438 2.15625 -10.320312 2.15625 -11.40625 C 2.15625 -12.507812 2.410156 -13.484375 2.921875 -14.328125 C 3.429688 -15.171875 4.175781 -15.828125 5.15625 -16.296875 C 6.144531 -16.765625 7.320312 -17 8.6875 -17 C 10.082031 -17 11.191406 -16.753906 12.015625 -16.265625 C 12.535156 -17.015625 12.832031 -17.878906 12.90625 -18.859375 L 13.234375 -19.046875 L 16.234375 -18.3125 C 16.148438 -17.519531 15.921875 -16.851562 15.546875 -16.3125 C 15.171875 -15.769531 14.59375 -15.285156 13.8125 -14.859375 L 13.8125 -14.53125 C 14.75 -13.707031 15.21875 -12.550781 15.21875 -11.0625 C 15.21875 -10.039062 14.957031 -9.117188 14.4375 -8.296875 C 13.925781 -7.484375 13.175781 -6.835938 12.1875 -6.359375 C 11.207031 -5.890625 10.039062 -5.65625 8.6875 -5.65625 L 8.0625 -5.671875 C 7.65625 -5.691406 7.375 -5.703125 7.21875 -5.703125 C 6.832031 -5.703125 6.53125 -5.597656 6.3125 -5.390625 C 6.09375 -5.179688 5.984375 -4.914062 5.984375 -4.59375 C 5.984375 -4.238281 6.125 -3.960938 6.40625 -3.765625 C 6.6875 -3.578125 7.101562 -3.472656 7.65625 -3.453125 L 11.390625 -3.3125 C 15.078125 -3.195312 16.921875 -1.609375 16.921875 1.453125 C 16.921875 2.523438 16.644531 3.484375 16.09375 4.328125 C 15.539062 5.171875 14.648438 5.835938 13.421875 6.328125 C 12.191406 6.828125 10.601562 7.078125 8.65625 7.078125 Z M 8.6875 -8.59375 C 9.5 -8.59375 10.128906 -8.828125 10.578125 -9.296875 C 11.035156 -9.773438 11.265625 -10.453125 11.265625 -11.328125 C 11.265625 -12.203125 11.035156 -12.875 10.578125 -13.34375 C 10.128906 -13.8125 9.5 -14.046875 8.6875 -14.046875 C 7.875 -14.046875 7.242188 -13.8125 6.796875 -13.34375 C 6.359375 -12.875 6.140625 -12.203125 6.140625 -11.328125 C 6.140625 -10.441406 6.359375 -9.765625 6.796875 -9.296875 C 7.242188 -8.828125 7.875 -8.59375 8.6875 -8.59375 Z M 8.65625 4.03125 C 10.082031 4.03125 11.117188 3.828125 11.765625 3.421875 C 12.421875 3.023438 12.75 2.503906 12.75 1.859375 C 12.75 1.335938 12.582031 0.953125 12.25 0.703125 C 11.914062 0.453125 11.382812 0.316406 10.65625 0.296875 L 7.359375 0.15625 C 7.253906 0.15625 7.148438 0.148438 7.046875 0.140625 C 6.953125 0.128906 6.863281 0.125 6.78125 0.125 C 6.070312 0.125 5.53125 0.273438 5.15625 0.578125 C 4.789062 0.878906 4.609375 1.296875 4.609375 1.828125 C 4.609375 2.535156 4.945312 3.078125 5.625 3.453125 C 6.300781 3.835938 7.3125 4.03125 8.65625 4.03125 Z M 8.65625 4.03125 "/></g></g></g><g fill="#ffffff" fill-opacity="1"><g transform="translate(111.854963, 33.113245)"><g><path d="M 6.5 0.3125 C 5.4375 0.3125 4.507812 0.117188 3.71875 -0.265625 C 2.9375 -0.660156 2.332031 -1.238281 1.90625 -2 C 1.476562 -2.757812 1.265625 -3.675781 1.265625 -4.75 C 1.265625 -5.738281 1.476562 -6.566406 1.90625 -7.234375 C 2.332031 -7.898438 2.988281 -8.445312 3.875 -8.875 C 4.757812 -9.3125 5.914062 -9.644531 7.34375 -9.875 C 8.34375 -10.03125 9.101562 -10.203125 9.625 -10.390625 C 10.144531 -10.585938 10.492188 -10.804688 10.671875 -11.046875 C 10.859375 -11.296875 10.953125 -11.601562 10.953125 -11.96875 C 10.953125 -12.507812 10.765625 -12.921875 10.390625 -13.203125 C 10.015625 -13.484375 9.394531 -13.625 8.53125 -13.625 C 7.601562 -13.625 6.71875 -13.414062 5.875 -13 C 5.039062 -12.59375 4.316406 -12.050781 3.703125 -11.375 L 3.40625 -11.375 L 1.640625 -14.015625 C 2.492188 -14.953125 3.53125 -15.679688 4.75 -16.203125 C 5.96875 -16.734375 7.296875 -17 8.734375 -17 C 10.941406 -17 12.539062 -16.53125 13.53125 -15.59375 C 14.519531 -14.65625 15.015625 -13.320312 15.015625 -11.59375 L 15.015625 -4.359375 C 15.015625 -3.609375 15.34375 -3.234375 16 -3.234375 C 16.25 -3.234375 16.492188 -3.28125 16.734375 -3.375 L 16.953125 -3.3125 L 17.25 -0.390625 C 17.019531 -0.242188 16.695312 -0.117188 16.28125 -0.015625 C 15.875 0.078125 15.421875 0.125 14.921875 0.125 C 13.921875 0.125 13.140625 -0.0664062 12.578125 -0.453125 C 12.023438 -0.835938 11.628906 -1.4375 11.390625 -2.25 L 11.0625 -2.28125 C 10.25 -0.550781 8.726562 0.3125 6.5 0.3125 Z M 7.828125 -2.8125 C 8.796875 -2.8125 9.570312 -3.132812 10.15625 -3.78125 C 10.738281 -4.4375 11.03125 -5.34375 11.03125 -6.5 L 11.03125 -8.203125 L 10.734375 -8.25 C 10.484375 -8.050781 10.15625 -7.882812 9.75 -7.75 C 9.34375 -7.613281 8.753906 -7.476562 7.984375 -7.34375 C 7.078125 -7.195312 6.421875 -6.9375 6.015625 -6.5625 C 5.617188 -6.195312 5.421875 -5.675781 5.421875 -5 C 5.421875 -4.289062 5.632812 -3.75 6.0625 -3.375 C 6.488281 -3 7.078125 -2.8125 7.828125 -2.8125 Z M 7.828125 -2.8125 "/></g></g></g><g fill="#ffffff" fill-opacity="1"><g transform="translate(129.437558, 33.113245)"><g><path d="M 4.484375 -18.671875 C 3.734375 -18.671875 3.117188 -18.898438 2.640625 -19.359375 C 2.171875 -19.816406 1.9375 -20.410156 1.9375 -21.140625 C 1.9375 -21.859375 2.171875 -22.445312 2.640625 -22.90625 C 3.117188 -23.363281 3.734375 -23.59375 4.484375 -23.59375 C 4.992188 -23.59375 5.441406 -23.484375 5.828125 -23.265625 C 6.222656 -23.054688 6.53125 -22.765625 6.75 -22.390625 C 6.96875 -22.023438 7.078125 -21.609375 7.078125 -21.140625 C 7.078125 -20.660156 6.96875 -20.234375 6.75 -19.859375 C 6.53125 -19.492188 6.222656 -19.203125 5.828125 -18.984375 C 5.441406 -18.773438 4.992188 -18.671875 4.484375 -18.671875 Z M 2.40625 0 L 2.40625 -16.671875 L 6.59375 -16.671875 L 6.59375 0 Z M 2.40625 0 "/></g></g></g><g fill="#ffffff" fill-opacity="1"><g transform="translate(138.417834, 33.113245)"><g><path d="M 2.40625 0 L 2.40625 -16.671875 L 6.421875 -16.671875 L 6.421875 -14.234375 L 6.75 -14.15625 C 7.78125 -16.050781 9.460938 -17 11.796875 -17 C 13.722656 -17 15.132812 -16.472656 16.03125 -15.421875 C 16.9375 -14.367188 17.390625 -12.84375 17.390625 -10.84375 L 17.390625 0 L 13.203125 0 L 13.203125 -10.328125 C 13.203125 -11.429688 12.976562 -12.226562 12.53125 -12.71875 C 12.09375 -13.207031 11.382812 -13.453125 10.40625 -13.453125 C 9.207031 -13.453125 8.269531 -13.0625 7.59375 -12.28125 C 6.925781 -11.507812 6.59375 -10.296875 6.59375 -8.640625 L 6.59375 0 Z M 2.40625 0 "/></g></g></g></g></g></svg>