<svg id="Layer_1" enable-background="new 0 0 480.182 480.182" height="512" viewBox="0 0 480.182 480.182" width="512" xmlns="http://www.w3.org/2000/svg"><path d="m429.544 137.491c7.073 81.041 29.791 172.168-5.72 207.19 1.97 58.54-65.01 84.46-160.53 82.41-12.82-.28-20.91-9.41-22.73-19.66h-.01c-44.411 8.781-94.075 11.216-121.57 8.91 0 22.58-21.95 33.1-46.28 40.05-11.149 3.349-21.244-2.908-22.13-10.45-1.25-10.72 1.576-21.538 8.526-31.138-16.58-.32-31.956-5.142-44.046-13.232-7.92-5.31-10.7-20.35.88-25.76 49.74-23.21 70.047-18.841 75.527-18.841 14.55-52.9 57.073-52.799 102.753-75.789 32.94-16.58 81.12-46.17 77.66-146.09-3.03-87.64 73.86-148.62 159.1-88.37 51.265-3.975 58.933 64.365-1.43 90.77z" fill="#b9dcff"/><path d="m262.064 427.041c-12.11-.82-19.74-9.69-21.5-19.61h-.01c-1.78-10.06 2.44-21.2 14.11-26.14 22.063-9.339 86.309-37.142 77.65-59.66 80.665 33.84-24.232 107.657-70.25 105.41z" fill="#d1e7ff"/><path d="m430.952 46.71c-67.799-20.02-121.617 34.779-119.078 108.381 3.46 99.92-44.72 129.51-77.66 146.09-39.04 19.65-78.875 20.852-94.7 55.84-17.047 37.689-50.298 31.519-63.834 81.141-4.284 15.706-28.028 10.284-24.613-5.633 1.265-5.895 3.962-12.1 8.033-17.725-16.577-.321-31.958-5.143-44.046-13.232-7.92-5.31-10.7-20.35.88-25.76 49.731-23.206 70.042-18.842 75.527-18.841 14.551-52.897 57.074-52.8 102.753-75.789 32.94-16.58 81.12-46.17 77.66-146.09-3.03-87.634 73.846-148.607 159.078-88.382z" fill="#d1e7ff"/><g fill="#2e58ff"><path d="m433.284 38.589c-88.131-60.178-172.714 1.088-169.405 96.783 5.607 162.123-121.686 132.487-164.771 188.261-13.499 17.474-20.094 40.218-19.602 67.601.078 4.369 3.644 7.857 7.996 7.856 4.475 0 8.082-3.666 8.001-8.144-.425-23.653 5.048-43.01 16.267-57.532 36.417-47.144 174.011-27.685 168.099-198.595-2.82-81.542 67.057-137.713 146.482-81.563 1.524 1.077 3.376 1.588 5.237 1.443 46.194-3.588 47.85 65.41-24.431 81.66-4.311.969-7.02 5.249-6.05 9.56.969 4.311 5.247 7.02 9.56 6.05 4.165-.937 8.119-2.05 11.902-3.294 5.37 53.118 15.616 107.364 11.872 147.17-.414 4.399 2.817 8.3 7.216 8.714 4.428.416 8.303-2.845 8.714-7.216 4.072-43.297-7.145-100.324-12.352-155.037 62.537-31.686 50.915-105.368-4.735-103.717z"/><path d="m398.627 276.762c-3.799 2.256-5.05 7.165-2.793 10.963 58.272 98.116-19.732 133.79-132.37 131.363-16.655-.359-21.465-23.749-5.687-30.428 57.37-24.282 83.076-43.527 83.351-62.4.148-10.205-6.95-18.665-21.098-25.146-4.017-1.839-8.765-.074-10.605 3.942-1.84 4.017-.075 8.765 3.942 10.605 7.521 3.445 11.809 7.223 11.763 10.366-.057 3.954-5.534 19.094-73.589 47.899-11.478 4.858-18.61 15.133-19.333 26.936-43.778 7.946-88.485 9.52-112.558 7.505-4.698-.387-8.667 3.32-8.667 7.972 0 14.656-12.28 24.383-41.062 32.525-16.585 4.688-13.255-17.064-4.343-29.368 3.773-5.209.147-12.565-6.323-12.691-32.338-.632-52.093-18.071-39.939-23.741 14.291-6.669 27.406-11.608 38.98-14.679 4.271-1.133 6.814-5.513 5.681-9.784s-5.515-6.813-9.784-5.681c-12.487 3.312-26.498 8.576-41.645 15.645-19.323 9.018-22.023 44.553 33.572 53.128-12.3 29.895 5.522 48.969 28.154 42.567 13.103-3.706 45.936-12.996 51.803-39.45 26.193 1.233 68.067-.786 108.978-8.202 4.896 11.038 15.427 18.205 28.061 18.477 129.505 2.785 210.572-47.6 146.472-155.529-2.254-3.8-7.162-5.049-10.961-2.794z"/><circle cx="394.97" cy="79.512" r="8"/></g></svg>